# xmcd
#
# Track frame offsets: 
#        150
#        3117
#        16760
#        32735
#        38780
#        57810
#        72965
#        86445
#        103182
#        113400
#        135187
#        149742
#        153735
#        165867
#
# Disc length: 2252 seconds
#
# Revision: 0
# Processed by: cddbd v1.5.2PL0 Copyright (c) Steve Scherf et al.
# Submitted via: ExactAudioCopy v0.99pb5
#
DISCID=a308ca0e
DTITLE=Ford and Lopatin - Channel Pressure
DYEAR=2011
DGENRE=Electronic
TTITLE0=Scumsoft
TTITLE1=Channel Pressure
TTITLE2=Emergency Room
TTITLE3=Rock Center Paranoia
TTITLE4=Too Much Midi (Please Forgive Me)
TTITLE5=New Planet
TTITLE6=The Voices
TTITLE7=Joey Rogers
TTITLE8=Dead Jammer
TTITLE9=Break Inside
TTITLE10=Surrender
TTITLE11=Green Fields
TTITLE12=World Of Regret
TTITLE13=G's Dream 
EXTD=
EXTT0=
EXTT1=
EXTT2=
EXTT3=
EXTT4=
EXTT5=
EXTT6=
EXTT7=
EXTT8=
EXTT9=
EXTT10=
EXTT11=
EXTT12=
EXTT13=
PLAYORDER=
